<?xml version="1.0" encoding="utf-8"?>
<!-- Generator: Adobe Illustrator 19.2.1, SVG Export Plug-In . SVG Version: 6.00 Build 0)  -->
<svg version="1.1" id="layer" xmlns="http://www.w3.org/2000/svg" xmlns:xlink="http://www.w3.org/1999/xlink" x="0px" y="0px"
	 viewBox="0 0 652 652" style="enable-background:new 0 0 652 652;" xml:space="preserve">
<style type="text/css">
	.st0{fill:#EE3124;}
	.st1{fill:#FFFFFF;}
</style>
<rect x="25" y="229.4" class="st0" width="600" height="193.1"/>
<g>
	<path class="st1" d="M254.8,354.6c0,0-33.8,0.2-33.4-29.1c0.4-28.9,34.3-28.9,34.3-28.9s32.2-1.2,32.2,28.9
		C288,355.7,254.8,354.6,254.8,354.6 M255.8,281.5h-0.2c0,0-57.9-0.4-57.9,44.6c0,44.9,51.9,43,56.9,43c5,0,57.1,1.9,57.1-43
		C311.7,281.1,255.8,281.5,255.8,281.5"/>
	<path class="st1" d="M406.4,354.6c0,0-33.8,0.2-33.4-29.1c0.4-28.9,34.3-28.9,34.3-28.9s32.2-1.2,32.2,28.9
		C439.6,355.7,406.4,354.6,406.4,354.6 M407.4,281.5h-0.2c0,0-57.9-0.4-57.9,44.6c0,44.9,51.9,43,56.9,43c5,0,57.1,1.9,57.1-43
		C463.3,281.1,407.4,281.5,407.4,281.5"/>
	<path class="st1" d="M330.4,335.5c-1.2,0-13.4,0.5-13.4-10.1c0-10.6,13.6-10.5,13.6-10.5h0c0,0,13.2-0.1,13.2,10.5
		C343.9,336,331.6,335.5,330.4,335.5"/>
	<path class="st1" d="M159.9,281.5c0,0,14.7-0.4,28,2.5l1.9,17.2c0,0-13.7-4.6-29.7-4.6c0,0-33.9,0-34.3,28.9
		c-0.4,29.3,33.4,28.9,33.4,28.9s13.5,1,31.6-5.4l-3.1,16.8c0,0-14.8,3.3-28.7,3.3c-5,0-56.9,1.9-56.9-43
		C102.1,281.1,159.9,281.5,159.9,281.5h0.2"/>
	<path class="st1" d="M474.1,281.5H525c0,0,24.3,1.7,24.3,28.5s-34.7,23.7-35.3,23.7h-11.6l-5.4-13.7c0,0,12.1,0.2,16.4-0.2
		c4.2-0.4,13.9-3.3,13.9-11c0-7.7-5.8-14.5-17-14.5c-11.2,0-14.7,0.4-14.7,0.4s-0.5,65.3-0.3,73.2h-22.2
		C473.2,368,474.8,288.2,474.1,281.5"/>
</g>
</svg>
